<svg width="708" height="193" viewBox="0 0 708 193" fill="none" xmlns="http://www.w3.org/2000/svg">
<circle cx="20" cy="169" r="16" stroke="#E7E7E7" stroke-width="8"/>
<path d="M37.5 172.5C173.667 202.167 496.3 211.2 697.5 10" stroke="#E7E7E7" stroke-width="8"/>
<path d="M706.498 3.87046C706.426 1.93879 704.802 0.430854 702.87 0.502397L671.392 1.66827C669.46 1.73981 667.952 3.36374 668.024 5.29541C668.096 7.22708 669.719 8.73501 671.651 8.66347L699.632 7.62714L700.668 35.608C700.74 37.5396 702.364 39.0476 704.295 38.976C706.227 38.9045 707.735 37.2805 707.663 35.3489L706.498 3.87046ZM692.565 20.3816L705.565 6.38158L700.435 1.61842L687.435 15.6184L692.565 20.3816Z" fill="#E7E7E7"/>
</svg>
